# xmcd CD database file
#
# Track frame offsets:
#	150
#	20754
#	36809
#	55973
#	76330
#	94335
#	114813
#	131659
#	147076
#	166767
#	180715
#	200231
#	226675
#	245097
#	264754
#	291076
#	308255
#	328845
#
# Disc length: 4598 seconds
#
# Revision: 0
# Processed by: cddbd v1.5.2PL0 Copyright (c) Steve Scherf et al.
# Submitted via: Feurio! 1.68 - http://www.feurio.com
#
DISCID=f311f412
DTITLE=Harzcowboy - Cowboy Himmel
DYEAR=1900
DGENRE=Schlager
TTITLE0=Pferdehalfter
TTITLE1=Cowboy Himmel
TTITLE2=Komm unter meine Decke
TTITLE3=Der alte Fluss
TTITLE4=Dave Duddley
TTITLE5=Highways
TTITLE6=Country Roads
TTITLE7=1000 Meilen Staub
TTITLE8=Caroline
TTITLE9=Ring Of Fire
TTITLE10=Leidenschaft
TTITLE11=Jambalaya Medley
TTITLE12=Barfuss
TTITLE13=Alabama Moon
TTITLE14=Detroit City
TTITLE15=Gitarre und Koffer
TTITLE16=Träum von den Cowboys
TTITLE17=Der wilde, wilde Westen
EXTD=
EXTT0=
EXTT1=
EXTT2=
EXTT3=
EXTT4=
EXTT5=
EXTT6=
EXTT7=
EXTT8=
EXTT9=
EXTT10=
EXTT11=
EXTT12=
EXTT13=
EXTT14=
EXTT15=
EXTT16=
EXTT17=
PLAYORDER=
